<svg width="149" height="27" viewBox="0 0 149 27" fill="none" xmlns="http://www.w3.org/2000/svg">
<path fill-rule="evenodd" clip-rule="evenodd" d="M142.931 1.29568C137.973 2.45365 137.575 2.63199 137.575 3.6942C137.575 4.83507 137.61 4.84191 143.288 4.84191H149V2.39893C149 1.05529 148.84 -0.0240231 148.643 0.000406687C148.446 0.0248365 145.876 0.607733 142.931 1.29568ZM122.461 1.81457L120.438 2.96081L120.439 12.5739C120.439 20.7496 120.564 22.4416 121.272 23.8903C122.339 26.0758 123.948 26.9235 126.531 26.6621C129.064 26.4056 129.301 26.1716 128.721 24.4981C128.403 23.5801 127.967 23.2019 127.323 23.2845C125.07 23.5742 124.975 23.1423 124.722 11.5684L124.484 0.668318L122.461 1.81457ZM76.7007 5.8191L73.2452 9.72787H76.8478H80.4505V5.8191C80.4505 3.66928 80.3843 1.91033 80.3034 1.91033C80.2225 1.91033 78.6011 3.66928 76.7007 5.8191ZM7.61661 7.63766C7.22388 7.78912 6.33417 8.3212 5.63915 8.82055C4.10916 9.9194 3.80831 9.94774 3.80831 8.99498C3.80831 8.0515 3.71215 8.06518 1.69327 9.28765L0 10.3132V18.3267V26.3402H1.90415H3.80831V19.7368V13.1339L5.35543 12.1655C6.20659 11.6329 7.69373 11.1966 8.66057 11.1956C11.5154 11.1927 11.901 12.2261 11.901 19.8809V26.3963L13.9241 26.2459L15.9473 26.0959L16.0225 19.4998L16.0977 12.9038L17.4506 12.0511C19.2419 10.9225 22.003 10.9401 23.0141 12.0873C23.6662 12.827 23.8019 14.1306 23.8019 19.6606V26.3402H25.995H28.1881L28.0182 18.8676C27.8792 12.7616 27.695 11.1546 27.0109 10.0826C25.0191 6.96388 20.7348 6.49336 17.0584 8.99058C15.3213 10.1705 15.0428 10.2341 14.6634 9.5383C13.7123 7.79401 9.88636 6.76209 7.61661 7.63766ZM37.3647 8.16583C34.9512 9.32967 32.5767 12.0839 31.8551 14.5572C31.3462 16.2995 31.587 20.9656 32.1854 20.9656C32.3135 20.9656 33.0499 20.6299 33.8225 20.22C35.0612 19.5628 35.2268 19.2159 35.2268 17.2816C35.2268 12.658 40.1615 9.7611 44.0374 12.1083C45.6383 13.0782 45.8449 13.0963 47.1835 12.3854C48.9391 11.4541 48.7873 10.8551 46.3499 9.09172C43.8165 7.25851 40.0515 6.87056 37.3647 8.16583ZM62.3201 7.75199C61.6427 7.96258 60.5349 8.50736 59.858 8.96273C58.6789 9.75524 58.6203 9.74937 58.4708 8.82104C58.3199 7.88538 58.2438 7.89466 56.2915 9.08342L54.2684 10.3157V18.3281V26.3402H56.4105H58.5527V19.7368V13.1339L60.0998 12.1655C61.6403 11.2015 64.5061 10.8844 65.5029 11.5674C66.7701 12.4357 67.1214 14.3104 67.1214 20.2005V26.3402H69.0256H70.9297V19.0835C70.9297 12.3389 70.8531 11.7101 69.8443 10.1735C68.1039 7.52333 65.6228 6.72447 62.3201 7.75199ZM94.3265 8.11355C91.6831 9.45084 90.2493 12.2192 90.0446 16.3835C89.837 20.5991 90.9919 23.6724 93.4635 25.4817C95.588 27.0374 99.6072 27.0227 101.753 25.4519C103.279 24.335 103.3 24.333 103.3 25.3297C103.3 26.2014 103.594 26.3402 105.442 26.3402H107.585V17.0568V7.77349H105.442C103.67 7.77349 103.3 7.93033 103.3 8.68423C103.3 9.53781 103.161 9.52266 101.078 8.43993C98.4766 7.08848 96.5396 6.99467 94.3265 8.11355ZM136.157 7.83017C133.065 9.09661 131.22 12.5339 131.203 17.0632C131.174 24.5778 136.898 28.939 142.542 25.7016C144.587 24.5284 144.716 24.5104 144.716 25.3972C144.716 26.1892 145.059 26.3402 146.858 26.3402H149V17.0568V7.77349H146.858C145.085 7.77349 144.716 7.93033 144.716 8.68423C144.716 9.53781 144.577 9.52266 142.493 8.43993C140.151 7.22333 138.117 7.0274 136.157 7.83017ZM81.8238 8.62853C81.7934 9.09905 81.7401 9.81338 81.7048 10.2165C81.6606 10.7183 80.9913 10.9972 79.5803 11.1013L77.5195 11.2538L77.6761 17.5655C77.8256 23.6094 77.8851 23.9319 79.0685 25.1455C80.5643 26.6783 83.4348 27.1835 85.9021 26.348C87.1355 25.9302 87.5758 25.5389 87.3859 25.0297C87.2369 24.6315 87.115 23.969 87.115 23.5576C87.115 22.9903 86.7404 22.8662 85.5679 23.046C84.7172 23.1765 83.539 23.0969 82.9497 22.8692C81.9243 22.4734 81.8786 22.2159 81.8786 16.8247V11.1937H84.2588H86.639V9.48358V7.77349H84.2588C82.3304 7.77349 81.8681 7.9357 81.8238 8.62853ZM95.5366 12.2774C93.3183 14.5542 93.4787 20.498 95.8032 22.169C97.2437 23.2048 99.9028 23.1061 101.753 21.9482C103.288 20.9876 103.3 20.9504 103.3 17.1203C103.3 13.4715 103.23 13.2135 102.023 12.401C101.32 11.9285 99.8367 11.437 98.7265 11.3085C97.0418 11.1135 96.5144 11.2738 95.5366 12.2774ZM136.67 12.4645C135.489 14.006 134.984 16.4793 135.392 18.7176C135.56 19.6308 136.134 20.95 136.67 21.6491C137.914 23.2727 140.775 23.3856 143.112 21.9027C144.708 20.8904 144.716 20.8684 144.71 17.1389C144.704 13.4016 144.7 13.3894 143.05 12.293C140.7 10.73 137.943 10.8043 136.67 12.4645ZM48.3422 14.0314C47.1587 14.7663 46.9483 15.2212 46.8664 17.22C46.6618 22.2081 41.5824 24.7727 37.5823 21.9071C36.4069 21.0653 36.316 21.0706 34.7713 22.0747L33.1751 23.112L34.9598 24.6955C40.9683 30.0266 50.6752 25.4959 50.659 17.3676C50.6562 15.9873 50.4444 14.4795 50.1882 14.0163C49.7484 13.2209 49.647 13.2218 48.3422 14.0314ZM113.773 21.4541C113.773 26.0958 113.773 26.0958 115.201 26.0958C116.629 26.0958 116.463 26.0959 116.463 26.0959L116.546 23.775L116.629 21.4542L114.963 21.4541C113.416 21.4541 113.773 21.4541 113.773 21.4541Z" fill="white"/>
</svg>
